<?xml version="1.0" standalone="no"?>
<!DOCTYPE svg PUBLIC "-//W3C//DTD SVG 20010904//EN"
 "http://www.w3.org/TR/2001/REC-SVG-20010904/DTD/svg10.dtd">
<svg version="1.0" xmlns="http://www.w3.org/2000/svg"
 width="512.000000pt" height="512.000000pt" viewBox="0 0 512.000000 512.000000"
 preserveAspectRatio="xMidYMid meet">

<g transform="translate(0.000000,512.000000) scale(0.100000,-0.100000)"
fill="#000000" stroke="none">
<path d="M2390 5064 c-19 -2 -78 -9 -130 -15 -363 -41 -754 -186 -1070 -397
-607 -405 -1000 -1019 -1112 -1737 -28 -181 -30 -530 -5 -698 68 -441 227
-825 490 -1176 101 -135 348 -379 487 -483 555 -411 1209 -578 1877 -479 557
83 1049 338 1443 747 368 383 595 849 677 1391 25 169 23 518 -5 698 -83 530
-316 999 -687 1384 -211 218 -427 376 -700 511 -244 121 -484 196 -757 235
-100 15 -437 27 -508 19z m420 -304 c492 -60 955 -285 1305 -635 332 -331 545
-741 630 -1215 23 -126 31 -463 16 -601 -39 -337 -163 -678 -348 -959 -209
-317 -514 -590 -843 -755 -102 -51 -203 -96 -246 -109 l-21 -6 -6 362 c-4 323
-7 371 -25 440 -12 42 -29 94 -40 116 l-19 40 95 31 c467 154 769 477 863 922
28 134 31 360 5 492 -33 172 -101 342 -187 469 -38 56 -38 58 -29 110 18 95
23 250 11 343 -21 154 -53 237 -118 300 -115 112 -336 70 -670 -128 l-93 -54
-77 18 c-273 65 -633 66 -904 1 l-77 -19 -83 50 c-196 116 -326 168 -464 186
-66 9 -89 9 -131 -4 -91 -27 -153 -108 -190 -250 -21 -83 -25 -345 -6 -438
l11 -58 -38 -57 c-86 -127 -154 -297 -187 -469 -26 -132 -23 -358 5 -492 94
-444 398 -769 862 -922 l96 -31 -20 -42 c-11 -22 -29 -80 -41 -128 -24 -100
-29 -104 -142 -115 -125 -12 -214 38 -304 172 -94 140 -180 223 -282 276 -70
35 -156 59 -216 59 l-45 0 6 -58 c4 -31 9 -96 13 -143 l7 -86 56 -16 c76 -22
132 -73 222 -203 108 -157 220 -242 371 -280 66 -17 202 -22 256 -10 l32 8 0
-197 0 -196 -22 7 c-89 27 -296 129 -420 207 -192 121 -378 285 -526 462 -265
317 -441 727 -492 1145 -15 126 -12 401 6 542 126 981 918 1776 1904 1913 116
16 425 19 540 5z m-1270 -912 c53 -16 183 -83 301 -154 127 -78 148 -81 324
-42 282 62 549 62 805 -1 168 -42 169 -42 345 64 66 39 146 84 177 99 67 31
160 57 170 47 4 -4 12 -47 17 -96 10 -95 1 -231 -19 -305 -15 -55 -15 -123 1
-152 6 -12 32 -49 57 -82 59 -80 125 -219 154 -326 20 -74 23 -108 22 -260 0
-161 -2 -182 -27 -263 -79 -258 -235 -436 -492 -564 -140 -70 -260 -103 -518
-143 -72 -12 -133 -23 -135 -25 -4 -4 88 -143 178 -270 99 -139 95 -112 98
-577 l3 -407 -23 -5 c-101 -23 -171 -29 -363 -33 -171 -4 -247 -1 -340 11 -66
9 -128 19 -138 22 -17 5 -18 28 -15 412 3 465 -1 438 98 577 93 131 182 266
178 271 -3 2 -64 13 -136 24 -256 39 -376 73 -517 143 -257 128 -413 306 -492
564 -25 81 -27 102 -27 263 -1 152 2 186 22 260 30 109 96 247 158 330 63 84
76 135 57 215 -23 96 -32 223 -22 318 5 49 11 93 14 97 5 8 25 6 85 -12z"/>
</g>
</svg>
