<?xml version="1.0" standalone="no"?>
<!DOCTYPE svg PUBLIC "-//W3C//DTD SVG 20010904//EN"
 "http://www.w3.org/TR/2001/REC-SVG-20010904/DTD/svg10.dtd">
<svg version="1.0" xmlns="http://www.w3.org/2000/svg"
 width="64.000000pt" height="64.000000pt" viewBox="0 0 64.000000 64.000000"
 preserveAspectRatio="xMidYMid meet">

<g transform="translate(0.000000,64.000000) scale(0.100000,-0.100000)"
fill="#000000" stroke="none">
<path d="M202 609 c-72 -28 -144 -101 -172 -176 -44 -118 -11 -266 77 -344 69
-60 109 -74 213 -74 86 0 100 3 148 29 101 56 153 139 160 256 3 60 0 86 -18
133 -60 158 -245 238 -408 176z m178 -20 c99 -22 189 -115 210 -216 23 -105
-26 -222 -117 -282 -26 -17 -50 -31 -54 -31 -4 0 -9 26 -11 57 -3 57 -2 58 32
78 70 41 98 122 70 209 -5 17 -12 48 -15 69 -7 45 -26 55 -69 38 -40 -17 -172
-17 -212 0 -43 17 -62 7 -69 -38 -3 -21 -11 -55 -17 -75 -6 -20 -8 -60 -6 -88
6 -56 37 -99 89 -120 24 -10 27 -15 18 -31 -13 -26 -21 -24 -62 16 -39 38 -57
44 -57 20 0 -26 66 -85 95 -85 20 0 25 -5 25 -25 0 -32 -7 -31 -63 6 -163 108
-162 346 2 457 68 47 132 59 211 41z m-163 -120 c15 -15 191 -15 206 0 21 21
37 12 37 -23 0 -18 7 -47 15 -62 20 -39 19 -73 -5 -112 -20 -33 -71 -62 -110
-62 l-20 0 20 -37 c11 -21 20 -57 20 -80 0 -38 -2 -42 -30 -48 -16 -4 -43 -4
-60 0 -28 6 -30 10 -30 48 0 23 9 59 20 80 l20 37 -20 0 c-39 0 -90 29 -110
62 -24 39 -25 73 -5 112 8 15 15 44 15 62 0 35 16 44 37 23z"/>
</g>
</svg>
