<?xml version="1.0" standalone="no"?>
<!DOCTYPE svg PUBLIC "-//W3C//DTD SVG 20010904//EN"
 "http://www.w3.org/TR/2001/REC-SVG-20010904/DTD/svg10.dtd">
<svg version="1.0" xmlns="http://www.w3.org/2000/svg"
 width="64.000000pt" height="64.000000pt" viewBox="0 0 64.000000 64.000000"
 preserveAspectRatio="xMidYMid meet">

<g transform="translate(0.000000,64.000000) scale(0.100000,-0.100000)"
fill="#000000" stroke="none">
<path d="M244 626 c-63 -16 -112 -45 -157 -96 -47 -51 -63 -83 -77 -156 -10
-51 -9 -71 4 -124 20 -78 44 -118 102 -169 82 -72 203 -94 314 -56 76 25 160
109 185 185 42 123 15 241 -74 331 -81 81 -190 112 -297 85z m199 -47 c58 -29
104 -75 135 -134 37 -71 37 -179 0 -250 -31 -60 -77 -105 -138 -136 -64 -32
-176 -32 -240 0 -61 31 -107 76 -138 136 -36 69 -37 179 -3 245 42 81 112 139
196 161 47 13 141 1 188 -22z"/>
<path d="M212 408 c2 -15 10 -23 23 -23 30 0 27 39 -3 43 -20 3 -23 0 -20 -20z"/>
<path d="M202 283 c3 -77 3 -78 31 -81 l27 -3 0 80 0 81 -30 0 -31 0 3 -77z"/>
<path d="M292 282 c3 -75 4 -77 28 -77 23 0 25 4 30 55 4 40 9 55 20 55 11 0
16 -15 20 -55 5 -51 7 -55 33 -58 27 -3 27 -3 27 55 0 86 -14 102 -96 102
l-65 0 3 -77z"/>
</g>
</svg>
