<?xml version="1.0" standalone="no"?>
<!DOCTYPE svg PUBLIC "-//W3C//DTD SVG 20010904//EN"
 "http://www.w3.org/TR/2001/REC-SVG-20010904/DTD/svg10.dtd">
<svg version="1.0" xmlns="http://www.w3.org/2000/svg"
 width="512.000000pt" height="512.000000pt" viewBox="0 0 512.000000 512.000000"
 preserveAspectRatio="xMidYMid meet">

<g transform="translate(0.000000,512.000000) scale(0.100000,-0.100000)"
fill="#000000" stroke="none">
<path d="M2310 5084 c-439 -52 -798 -181 -1149 -412 -525 -345 -909 -890
-1061 -1504 -57 -230 -65 -309 -65 -608 0 -220 4 -297 18 -383 78 -459 249
-847 530 -1200 410 -514 1012 -851 1667 -932 161 -20 459 -20 620 0 1151 142
2063 1054 2205 2205 20 161 20 459 0 620 -84 680 -444 1302 -990 1712 -333
250 -688 403 -1112 479 -96 18 -166 22 -373 24 -140 2 -271 1 -290 -1z m537
-239 c265 -35 497 -105 728 -220 253 -125 445 -265 641 -467 419 -434 644
-991 644 -1598 0 -601 -221 -1154 -632 -1586 -196 -205 -388 -346 -645 -475
-321 -161 -653 -239 -1023 -239 -367 0 -690 75 -1015 235 -701 346 -1167 999
-1270 1778 -19 148 -19 417 -1 567 54 431 228 839 502 1177 94 116 276 290
396 381 319 239 692 392 1093 446 140 19 437 19 582 1z"/>
<path d="M1775 3461 c-137 -64 -178 -240 -83 -356 45 -54 101 -79 179 -80 56
0 73 4 115 30 30 19 60 49 79 79 75 122 11 294 -124 335 -56 16 -120 13 -166
-8z"/>
<path d="M1640 2275 l0 -635 230 0 230 0 0 635 0 635 -230 0 -230 0 0 -635z"/>
<path d="M2330 2275 l0 -635 229 0 230 0 3 383 c3 403 3 399 52 471 40 60 151
84 213 46 73 -44 83 -110 83 -552 l0 -348 231 0 231 0 -4 418 c-4 390 -6 422
-27 497 -30 112 -67 182 -125 240 -88 88 -194 120 -345 104 -133 -13 -242 -70
-292 -153 l-19 -31 0 98 0 97 -230 0 -230 0 0 -635z"/>
</g>
</svg>
